<?xml version="1.0" encoding="utf-8"?>
<!-- Generator: Adobe Illustrator 25.0.1, SVG Export Plug-In . SVG Version: 6.00 Build 0)  -->
<svg version="1.0"
	 id="svg8" inkscape:export-filename="/home/nestor/Pictures/Fediversal/Logo_penta_connectat-imbrincat_retallats-color-512x.png" inkscape:version="0.92.2 2405546, 2018-03-11" sodipodi:docname="Logo_penta_connectat-imbrincat_retallats-color.svg" xmlns:cc="http://creativecommons.org/ns#" xmlns:dc="http://purl.org/dc/elements/1.1/" xmlns:inkscape="http://www.inkscape.org/namespaces/inkscape" xmlns:rdf="http://www.w3.org/1999/02/22-rdf-syntax-ns#" xmlns:sodipodi="http://sodipodi.sourceforge.net/DTD/sodipodi-0.dtd" xmlns:svg="http://www.w3.org/2000/svg"
	 xmlns="http://www.w3.org/2000/svg" xmlns:xlink="http://www.w3.org/1999/xlink" x="0px" y="0px" viewBox="0 0 798.9 606.9"
	 style="enable-background:new 0 0 798.9 606.9;" xml:space="preserve">
<style type="text/css">
	.st0{fill:#A730B8;}
	.st1{fill:#5496BE;}
	.st2{fill:#CE3D1A;}
	.st3{fill:#D0188F;}
	.st4{fill:#5B36E9;}
	.st5{fill:#30B873;}
	.st6{fill:#EBE305;}
	.st7{fill:#F47601;}
	.st8{fill:#57C115;}
	.st9{fill:#DBB210;}
	.st10{fill:#FFCA00;fill-opacity:0.996;}
	.st11{fill:#64FF00;fill-opacity:0.996;}
	.st12{fill:#00A3FF;fill-opacity:0.996;}
	.st13{fill:#9500FF;fill-opacity:0.996;}
	.st14{fill:#FF0000;fill-opacity:0.996;}
</style>
<sodipodi:namedview  bordercolor="#666666" borderopacity="1.0" fit-margin-bottom="5" fit-margin-left="5" fit-margin-right="5" fit-margin-top="5" id="base" inkscape:current-layer="layer2" inkscape:cx="-209.83484" inkscape:cy="399.15332" inkscape:document-units="mm" inkscape:pageopacity="0.0" inkscape:pageshadow="2" inkscape:snap-global="false" inkscape:snap-midpoints="true" inkscape:snap-smooth-nodes="true" inkscape:window-height="736" inkscape:window-maximized="1" inkscape:window-width="1366" inkscape:window-x="0" inkscape:window-y="32" inkscape:zoom="0.50411932" pagecolor="#ffffff" showgrid="false">
	</sodipodi:namedview>
<g id="layer2" transform="translate(6.6789703,-32.495842)" inkscape:groupmode="layer" inkscape:label="Linies">
	<path id="path9722" inkscape:connector-curvature="0" class="st0" d="M250.1,263.8c-4.9,9.4-12.6,17.1-22.1,22l121.3,121.8
		l29.2-14.8L250.1,263.8z M410.1,424.4l-29.2,14.8l61.5,61.7c4.9-9.4,12.6-17.1,22.1-22L410.1,424.4z"/>
	<path id="path9729" inkscape:connector-curvature="0" class="st1" d="M550.5,312l-68.7,34.8l5.1,32.4l77.7-39.4
		C557.1,332.2,552.2,322.5,550.5,312z M441.9,367l-162.4,82.3c7.5,7.6,12.4,17.3,14.1,27.8L447,399.4L441.9,367z"/>
	<path id="path9713" inkscape:connector-curvature="0" class="st2" d="M389.7,164.3l-78.4,153l23.1,23.2l83-162
		C407,176.7,397.3,171.7,389.7,164.3z M291,357l-39.7,77.5c10.5,1.8,20.2,6.7,27.7,14.2l35.1-68.5L291,357z"/>
	<path id="path1015" inkscape:connector-curvature="0" class="st3" d="M227.3,286.1c-8,4-16.9,5.9-25.8,5.4c-1.7-0.1-3.3-0.3-5-0.5
		l23.2,148.2c8-4,16.9-5.9,25.8-5.4c1.7,0.1,3.3,0.3,5,0.5L227.3,286.1z"/>
	<path id="path1674" inkscape:connector-curvature="0" class="st4" d="M293.8,477.8c0.5,3.4,0.7,6.9,0.5,10.4
		c-0.4,7.1-2.3,14-5.5,20.4l148.2,23.8c-0.5-3.4-0.7-6.9-0.5-10.4c0.4-7.1,2.3-14,5.5-20.4L293.8,477.8z"/>
	<path id="path1676" inkscape:connector-curvature="0" class="st5" d="M565.1,340.3l-68.4,133.6c10.5,1.8,20.2,6.7,27.7,14.2
		l68.4-133.6C582.4,352.8,572.7,347.8,565.1,340.3z"/>
	<path id="path1678" inkscape:connector-curvature="0" class="st6" d="M471.8,151.4c-4.9,9.4-12.6,17.1-22.1,22l105.9,106.4
		c4.9-9.4,12.6-17.1,22.1-22L471.8,151.4z"/>
	<path id="path1680" inkscape:connector-curvature="0" class="st7" d="M375.1,135.9l-133.9,67.9c7.5,7.6,12.4,17.3,14.1,27.8
		l133.9-67.9C381.7,156.1,376.8,146.4,375.1,135.9z"/>
	<path id="path9758" inkscape:connector-curvature="0" class="st8" d="M449.5,173.6c-8.1,4.1-17.1,6.1-26.2,5.6
		c-1.5-0.1-3-0.3-4.5-0.5l11.9,76l32.4,5.2L449.5,173.6z M437.5,298.8l28.1,179.6c7.9-3.9,16.7-5.7,25.4-5.2
		c1.8,0.1,3.6,0.3,5.4,0.6L469.8,304L437.5,298.8z"/>
	<path id="path9760" inkscape:connector-curvature="0" class="st9" d="M255.4,232.2c0.6,3.5,0.7,7,0.6,10.6
		c-0.4,7-2.2,13.9-5.4,20.2l76,12.2l14.9-29.2L255.4,232.2z M385.7,253.1l-14.9,29.2l179.6,28.9c-0.5-3.4-0.7-6.9-0.5-10.3
		c0.4-7.1,2.3-14.1,5.5-20.5L385.7,253.1z"/>
</g>
<g id="layer3" transform="translate(6.6789703,-32.495842)" inkscape:groupmode="layer" inkscape:label="Nodes">
	<circle id="path817" class="st10" cx="426" cy="127.6" r="47"/>
	<circle id="path819" class="st11" cx="601.4" cy="303.6" r="47"/>
	<circle id="path823" class="st12" cx="488.1" cy="524.8" r="47"/>
	<circle id="path825" class="st13" cx="242.7" cy="485.4" r="47"/>
	<circle id="path827" class="st14" cx="204.3" cy="239.9" r="47"/>
</g>
</svg>
