<?xml version="1.0" encoding="utf-8"?>
<!-- Generator: Adobe Illustrator 26.0.1, SVG Export Plug-In . SVG Version: 6.00 Build 0)  -->
<svg version="1.1" id="Calque_1" xmlns="http://www.w3.org/2000/svg" xmlns:xlink="http://www.w3.org/1999/xlink" x="0px" y="0px"
	 viewBox="0 0 566.93 566.93" style="enable-background:new 0 0 566.93 566.93;" xml:space="preserve">
<style type="text/css">
	.st0{fill:none;}
	.st1{fill:#418229;}
	.st2{font-family:'Ubuntu-Regular';}
	.st3{font-size:64px;}
	.st4{fill:#DD5C58;}
	.st5{fill:#D5311E;}
	.st6{fill:#F7E87F;}
	.st7{fill:#A9DFF8;}
	.st8{fill:#9BB426;}
	.st9{fill:#FFD13A;}
	.st10{fill:#0091CC;}
	.st11{fill:#9556B2;}
</style>
<g>
	<rect y="411.08" class="st0" width="566.93" height="116.15"/>
	<text transform="matrix(1 0 0 1 103.8867 460.7451)"><tspan x="0" y="0" class="st1 st2 st3">La Pépinière</tspan><tspan x="-13.54" y="61.78" class="st4 st2 st3">des Possibles</tspan></text>
	<g>
		<path class="st5" d="M96.24,153.86c0.02,0,0.03-0.02,0.05-0.02c-0.04,0-0.08,0.01-0.12,0.01
			C96.19,153.85,96.21,153.86,96.24,153.86z"/>
		<path class="st5" d="M100.43,153.86c0.03,0,0.05-0.01,0.07-0.01c-0.04,0-0.08-0.01-0.12-0.01
			C100.4,153.84,100.41,153.86,100.43,153.86z"/>
		<path class="st6" d="M170.48,229.82c0-0.02-0.02-0.03-0.02-0.05c0,0.04,0.01,0.08,0.01,0.12
			C170.47,229.87,170.48,229.85,170.48,229.82z"/>
		<path class="st6" d="M170.48,225.63c0-0.03-0.01-0.05-0.01-0.07c0,0.04-0.01,0.08-0.01,0.12
			C170.47,225.66,170.48,225.65,170.48,225.63z"/>
		<path class="st7" d="M397.41,225.63c0,0.02,0.02,0.03,0.02,0.05c0-0.04-0.01-0.08-0.01-0.12
			C397.42,225.58,397.41,225.6,397.41,225.63z"/>
		<path class="st7" d="M397.41,229.82c0,0.03,0.01,0.05,0.01,0.07c0-0.04,0.01-0.08,0.01-0.12
			C397.43,229.8,397.41,229.81,397.41,229.82z"/>
		<path class="st8" d="M286.3,340.41c-0.02,0-0.03,0.02-0.05,0.02c0.04,0,0.08-0.01,0.12-0.01
			C286.35,340.41,286.33,340.41,286.3,340.41z"/>
		<path class="st8" d="M282.11,340.41c-0.03,0-0.05,0.01-0.07,0.01c0.04,0,0.08,0.01,0.12,0.01
			C282.14,340.42,282.13,340.41,282.11,340.41z"/>
		<path class="st1" d="M284.2,160.76c-11.98,16.99-29.48,30.78-44.49,44.78c-13.68,12.75-28.1,24.68-41.52,37.71
			c-14.26,13.83-27.11,28.74-33.72,47.86c-7.6,21.95-8.33,43.92,3.34,64.76c12.96,23.13,33.07,35.69,59.68,36.8
			c22.99,0.95,41.84-8.06,56.72-25.4c14.88,17.34,33.73,26.35,56.72,25.4c26.61-1.1,46.72-13.67,59.68-36.8
			c11.67-20.84,10.94-42.81,3.34-64.76c-6.62-19.12-19.47-34.04-33.72-47.86c-13.43-13.02-27.85-24.96-41.52-37.71
			C313.68,191.54,296.19,177.75,284.2,160.76 M284.17,367.24L284.17,367.24L284.17,367.24
			C284.17,367.24,284.17,367.24,284.17,367.24z M284.17,367.17l0.03-12.84l0.03,12.84c-0.01,0.01-0.02,0.02-0.03,0.04
			C284.19,367.19,284.18,367.18,284.17,367.17z M284.23,367.24C284.23,367.24,284.23,367.23,284.23,367.24L284.23,367.24
			L284.23,367.24z M190.75,276.77c8.76-12.3,19.67-22.6,30.85-32.62c15.49-13.87,31.3-27.4,45.62-42.52
			c6.01-6.35,11.74-12.94,16.98-19.94c5.24,7,10.97,13.59,16.98,19.94c14.32,15.12,30.13,28.65,45.62,42.52
			c11.18,10.01,22.09,20.32,30.85,32.62c11.28,15.82,16.91,33.29,14.39,52.81c-3.03,23.55-21.48,42.17-45.06,45.95
			c-23.39,3.75-46.55-8.24-56.94-29.5c-1.98-4.05-3.87-8.13-5.81-12.19l0-0.21c-0.02,0.04-0.03,0.07-0.05,0.11
			c-0.02-0.04-0.03-0.07-0.05-0.11l0,0.21c-1.94,4.07-3.83,8.15-5.81,12.19c-10.38,21.26-33.55,33.25-56.94,29.5
			c-23.58-3.78-42.03-22.4-45.06-45.95C173.84,310.06,179.47,292.59,190.75,276.77z"/>
		<path class="st1" d="M284.24,159.85c-11.98,16.99-29.48,30.78-44.49,44.78c-13.68,12.75-28.1,24.68-41.52,37.71
			c-14.26,13.83-27.11,28.74-33.72,47.86c-7.6,21.95-8.33,43.92,3.34,64.76c12.96,23.13,33.07,35.69,59.68,36.8
			c22.99,0.95,41.84-8.06,56.72-25.4c14.88,17.34,33.73,26.35,56.72,25.4c26.61-1.1,46.72-13.67,59.68-36.8
			c11.67-20.84,10.94-42.81,3.34-64.76c-6.62-19.12-19.47-34.04-33.72-47.86c-13.43-13.02-27.85-24.96-41.52-37.71
			C313.72,190.63,296.22,176.84,284.24,159.85 M284.21,366.33L284.21,366.33C284.21,366.33,284.21,366.33,284.21,366.33
			C284.21,366.33,284.21,366.33,284.21,366.33z M284.21,366.26l0.03-12.84l0.03,12.84c-0.01,0.01-0.02,0.02-0.03,0.04
			C284.23,366.28,284.22,366.27,284.21,366.26z M284.27,366.33C284.27,366.33,284.27,366.33,284.27,366.33L284.27,366.33
			L284.27,366.33z M190.78,275.86c8.76-12.3,19.67-22.6,30.85-32.62c15.49-13.87,31.3-27.4,45.62-42.52
			c6.01-6.35,11.74-12.94,16.98-19.94c5.24,7,10.97,13.59,16.98,19.94c14.32,15.12,30.13,28.65,45.62,42.52
			c11.18,10.01,22.09,20.32,30.85,32.62c11.28,15.82,16.91,33.29,14.39,52.81c-3.03,23.55-21.48,42.17-45.06,45.95
			c-23.39,3.75-46.55-8.24-56.94-29.5c-1.98-4.05-3.87-8.13-5.81-12.19l0-0.21c-0.02,0.04-0.03,0.07-0.05,0.11
			c-0.02-0.04-0.03-0.07-0.05-0.11l0,0.21c-1.94,4.07-3.83,8.15-5.81,12.19c-10.38,21.26-33.55,33.25-56.94,29.5
			c-23.58-3.78-42.03-22.4-45.06-45.95C173.87,309.15,179.5,291.68,190.78,275.86z"/>
		<path class="st9" d="M341.5,217.72c-16.99-11.98-32.16-29.48-46.15-44.49c-12.75-13.68-24.68-28.1-37.71-41.52
			c-13.83-14.26-28.74-27.11-47.86-33.72c-21.95-7.6-43.92-8.33-64.76,3.34c-23.13,12.96-35.69,33.07-36.8,59.68
			c-0.95,22.99,8.06,41.84,25.4,56.72c-17.34,14.88-26.35,33.73-25.4,56.72c1.1,26.61,13.67,46.72,36.8,59.68
			c20.84,11.67,42.81,10.94,64.76,3.34c19.12-6.62,34.04-19.47,47.86-33.72c13.02-13.43,24.96-27.85,37.71-41.52
			C309.34,247.2,324.5,229.7,341.5,217.72 M133.64,217.69L133.64,217.69C133.64,217.69,133.64,217.69,133.64,217.69
			C133.64,217.69,133.64,217.69,133.64,217.69z M133.71,217.69l12.84,0.03l-12.84,0.03c-0.01-0.01-0.02-0.02-0.04-0.03
			C133.69,217.71,133.7,217.7,133.71,217.69z M133.64,217.75C133.64,217.75,133.64,217.75,133.64,217.75L133.64,217.75
			L133.64,217.75z M224.11,124.26c12.3,8.76,22.6,19.67,32.62,30.85c13.87,15.49,27.4,31.3,42.52,45.62
			c6.35,6.01,12.94,11.74,19.94,16.98c-7,5.24-13.59,10.97-19.94,16.98c-15.12,14.32-28.65,30.13-42.52,45.62
			c-10.01,11.18-20.32,22.09-32.62,30.85c-15.82,11.28-33.29,16.91-52.81,14.39c-23.55-3.03-42.17-21.48-45.95-45.06
			c-3.75-23.39,8.24-46.55,29.5-56.94c4.05-1.98,8.13-3.87,12.19-5.81l0.21,0c-0.04-0.02-0.07-0.03-0.11-0.05
			c0.04-0.02,0.07-0.03,0.11-0.05l-0.21,0c-4.07-1.94-8.15-3.83-12.19-5.81c-21.26-10.38-33.25-33.55-29.5-56.94
			c3.78-23.58,22.4-42.03,45.95-45.06C190.81,107.35,208.28,112.98,224.11,124.26z"/>
		<path class="st4" d="M284.2,275.05c11.98-16.99,29.48-31.15,44.49-45.14c13.68-12.75,28.1-24.68,41.52-37.71
			c14.26-13.83,27.11-28.74,33.72-47.86c7.6-21.95,8.33-43.92-3.34-64.76c-12.96-23.13-33.07-35.69-59.68-36.8
			c-22.99-0.95-41.84,8.06-56.72,25.4c-14.88-17.34-33.73-26.35-56.72-25.4c-26.61,1.1-46.72,13.67-59.68,36.8
			c-11.67,20.84-10.94,42.81-3.34,64.76c6.62,19.12,19.47,34.04,33.72,47.86c13.43,13.02,27.85,24.96,41.52,37.71
			C254.73,243.9,272.22,258.05,284.2,275.05 M284.24,68.19L284.24,68.19C284.24,68.2,284.23,68.2,284.24,68.19
			C284.23,68.2,284.23,68.2,284.24,68.19z M284.24,68.27l-0.03,12.84l-0.03-12.84c0.01-0.01,0.02-0.02,0.03-0.04
			C284.22,68.24,284.22,68.25,284.24,68.27z M284.17,68.2C284.17,68.2,284.17,68.2,284.17,68.2L284.17,68.2L284.17,68.2z
			 M377.66,158.66c-8.76,12.3-19.67,22.6-30.85,32.62c-15.49,13.87-31.3,27.4-45.62,42.52c-6.01,6.35-11.74,12.94-16.98,19.94
			c-5.24-7-10.97-13.59-16.98-19.94c-14.32-15.12-30.13-28.65-45.62-42.52c-11.18-10.01-22.09-20.32-30.85-32.62
			c-11.28-15.82-16.91-33.29-14.39-52.81c3.03-23.55,21.48-42.17,45.06-45.95c23.39-3.75,46.55,8.24,56.94,29.5
			c1.98,4.05,3.87,8.13,5.81,12.19l0,0.21c0.02-0.04,0.03-0.07,0.05-0.11c0.02,0.04,0.03,0.07,0.05,0.11l0-0.21
			c1.94-4.07,3.83-8.15,5.81-12.19c10.38-21.26,33.55-33.25,56.94-29.5c23.58,3.78,42.03,22.4,45.06,45.95
			C394.57,125.37,388.94,142.84,377.66,158.66z"/>
		<path class="st10" d="M226.39,217.72c16.99,11.98,32.16,29.48,46.15,44.49c12.75,13.68,24.68,28.1,37.71,41.52
			c13.83,14.26,28.74,27.11,47.86,33.72c21.95,7.6,43.92,8.33,64.76-3.34c23.13-12.96,35.69-33.07,36.8-59.68
			c0.95-22.99-8.06-41.84-25.4-56.72c17.34-14.88,26.35-33.73,25.4-56.72c-1.1-26.61-13.67-46.72-36.8-59.68
			c-20.84-11.67-42.81-10.94-64.76-3.34c-19.12,6.62-34.04,19.47-47.86,33.72c-13.02,13.43-24.96,27.85-37.71,41.52
			C258.55,188.24,243.39,205.73,226.39,217.72 M434.25,217.75L434.25,217.75C434.25,217.75,434.25,217.75,434.25,217.75
			C434.25,217.75,434.25,217.75,434.25,217.75z M434.18,217.75l-12.84-0.03l12.84-0.03c0.01,0.01,0.02,0.02,0.04,0.03
			C434.21,217.73,434.2,217.74,434.18,217.75z M434.25,217.69C434.25,217.69,434.25,217.69,434.25,217.69L434.25,217.69
			L434.25,217.69z M343.79,311.17c-12.3-8.76-22.6-19.67-32.62-30.85c-13.87-15.49-27.4-31.3-42.52-45.62
			c-6.35-6.01-12.94-11.74-19.94-16.98c7-5.24,13.59-10.97,19.94-16.98c15.12-14.32,28.65-30.13,42.52-45.62
			c10.01-11.18,20.32-22.09,32.62-30.85c15.82-11.28,33.29-16.91,52.81-14.39c23.55,3.03,42.17,21.48,45.95,45.06
			c3.75,23.39-8.24,46.55-29.5,56.94c-4.05,1.98-8.13,3.87-12.19,5.81l-0.21,0c0.04,0.02,0.07,0.03,0.11,0.05
			c-0.04,0.02-0.07,0.03-0.11,0.05l0.21,0c4.07,1.94,8.15,3.83,12.19,5.81c21.26,10.38,33.25,33.55,29.5,56.94
			c-3.78,23.58-22.4,42.03-45.95,45.06C377.08,328.08,359.61,322.45,343.79,311.17z"/>
		<g>
			<path class="st1" d="M394.5,325.3c-1.4,0.18-0.79-0.08-2.12,0.67c-0.09,1.22-0.16,2.13-0.31,3.36c-0.61,4.8-2.24,9.47-3.99,13.79
				c4.34,2.05,13.59,2.09,18.81-2.28c1.72-6.22,2.62-12.49,2.66-18.83C405.46,322.68,399.01,324.71,394.5,325.3z"/>
		</g>
		<path class="st11" d="M284.14,160.76c-58.61,58.28-57.81,56.96-57.81,56.96c43.63,40.64,57.81,57.33,57.81,57.33
			c25.93-28.72,57.94-57.33,57.94-57.33C311.17,190.25,284.14,160.76,284.14,160.76z M284.02,249.86c0,0-6.92-9.03-32.88-31.96
			c0,0,12.1-8.94,32.85-32.4c0,0,11.36,13.18,33.27,32.22C317.26,217.72,298.53,232.8,284.02,249.86z"/>
	</g>
</g>
</svg>
